<svg xmlns="http://www.w3.org/2000/svg" viewBox="0 0 400 500" fill="none">

  <!-- Silla minimalista -->
  <!-- Respaldo simple -->
  <rect x="175" y="290" width="50" height="100" rx="20"
        fill="#718096" stroke="#4A5568" stroke-width="2.5"/>

  <!-- Asiento -->
  <ellipse cx="200" cy="385" rx="55" ry="18"
           fill="#718096" stroke="#4A5568" stroke-width="2.5"/>

  <!-- Patas base -->
  <line x1="200" y1="403" x2="155" y2="420" stroke="#4A5568" stroke-width="3" stroke-linecap="round"/>
  <line x1="200" y1="403" x2="245" y2="420" stroke="#4A5568" stroke-width="3" stroke-linecap="round"/>
  <line x1="200" y1="403" x2="200" y2="425" stroke="#4A5568" stroke-width="3" stroke-linecap="round"/>

  <!-- Ruedas simples -->
  <circle cx="155" cy="420" r="4" fill="#4A5568"/>
  <circle cx="245" cy="420" r="4" fill="#4A5568"/>
  <circle cx="200" cy="425" r="4" fill="#4A5568"/>
  <!-- Sombra suave -->
  <ellipse cx="200" cy="430" rx="65" ry="8" fill="#CBD5E1" opacity="0.4"/>
  <!-- Piernas -->
  <rect x="165" y="385" width="22" height="70" rx="11"
        fill="#A0AEC0" stroke="#4A5568" stroke-width="2.5"/>
  <rect x="213" y="385" width="22" height="70" rx="11"
        fill="#A0AEC0" stroke="#4A5568" stroke-width="2.5"/>

  <!-- Zapatos simples -->
  <ellipse cx="176" cy="460" rx="16" ry="8" fill="#4A5568"/>
  <ellipse cx="224" cy="460" rx="16" ry="8" fill="#4A5568"/>
  <!-- Torso -->
  <rect x="160" y="280" width="80" height="110" rx="40"
        fill="#A0AEC0" stroke="#4A5568" stroke-width="2.5" />
  <rect x="125" y="300" width="18" height="65" rx="9"
        fill="#A0AEC0" stroke="#4A5568" stroke-width="2.5"
        transform="rotate(-20 134 332)"/>
  <rect x="257" y="300" width="18" height="65" rx="9"
        fill="#A0AEC0" stroke="#4A5568" stroke-width="2.5"
        transform="rotate(20 266 332)"/>
  <!-- Cuello -->
  <rect x="188" y="255" width="24" height="30" rx="12"
        fill="#A0AEC0" stroke="#4A5568" stroke-width="2.5"/>
  <!-- Cabeza (sin rasgos faciales) -->
  <ellipse cx="200" cy="225" rx="32" ry="38"
           fill="#A0AEC0" stroke="#4A5568" stroke-width="2.5" />
</svg>